<svg xmlns="http://www.w3.org/2000/svg" version="1.1" xmlns:xlink="http://www.w3.org/1999/xlink" xmlns:svgjs="http://svgjs.dev/svgjs" width="1000" height="750" viewBox="0 0 1000 750"><rect width="1000" height="750" fill="#33018a"></rect><g transform="matrix(0.834,0,0,0.834,82.49454545454546,115.4193570850203)"><svg viewBox="0 0 396 247" data-background-color="#33018a" preserveAspectRatio="xMidYMid meet" height="623" width="1000" xmlns="http://www.w3.org/2000/svg" xmlns:xlink="http://www.w3.org/1999/xlink"><g id="tight-bounds" transform="matrix(1,0,0,1,0.2400000000000091,-0.09999999999999432)"><svg viewBox="0 0 395.52 247.2" height="247.2" width="395.52"><g><svg></svg></g><g><svg viewBox="0 0 395.52 247.2" height="247.2" width="395.52"><g transform="matrix(1,0,0,1,125.47298293515358,37.08)"><svg viewBox="0 0 144.57403412969282 173.04" height="173.04" width="144.57403412969282"><g><svg viewBox="0 0 144.57403412969282 173.04" height="173.04" width="144.57403412969282"><g><svg viewBox="0 0 144.57403412969282 173.04" height="173.04" width="144.57403412969282"><g><svg viewBox="0 0 144.57403412969282 173.04" height="173.04" width="144.57403412969282"><g id="textblocktransform"><svg viewBox="0 0 144.57403412969282 173.04" height="173.04" width="144.57403412969282" id="textblock"><g><svg viewBox="0 0 144.57403412969282 173.04" height="173.04" width="144.57403412969282"><g transform="matrix(1,0,0,1,0,0)"><svg width="144.57403412969282" viewBox="5.03000020980835 -35.77000045776367 29.8799991607666 35.77000045776367" height="173.04" data-palette-color="#ececf4"><path d="M11.08 0L5.03 0 5.03-35.77 11.08-35.77 11.08-20.75 28.86-20.75 28.86-35.77 34.91-35.77 34.91 0 28.86 0 28.86-16.46 11.08-16.46 11.08 0Z" opacity="1" transform="matrix(1,0,0,1,0,0)" fill="#ececf4" class="undefined-text-0" data-fill-palette-color="primary" id="text-0"></path></svg></g></svg></g></svg></g></svg></g></svg></g></svg></g></svg></g><g mask="url(#d616d4bd-67f7-44ba-bba7-be4308d6f045)"><g transform="matrix(2.7274746944296258, 0, 0, 2.7274746944296258, 105.70772906300012, 1)"><svg xmlns="http://www.w3.org/2000/svg" xmlns:xlink="http://www.w3.org/1999/xlink" version="1.1" x="0" y="0" viewBox="16.299999237060547 5.099999904632568 67.5 89.90000915527344" style="enable-background:new 0 0 100 100;" xml:space="preserve" height="89.90000915527344" width="67.5" class="icon-none" data-fill-palette-color="accent" id="none"><g fill="#d58dfc" data-fill-palette-color="accent"><path d="M83.7 26.3c0-0.8-0.3-1.6-0.9-2.2L66 6.1c-0.6-0.7-1.5-1-2.4-1h-42c-2.9 0-5.3 2.4-5.3 5.3v79.3c0 2.9 2.4 5.3 5.3 5.3h56.9c2.9 0 5.3-2.4 5.3-5.3L83.7 26.3zM56.2 74.8c0 0.8-0.4 1.2-1.2 1.2h-1.4c-0.8 0-1.2-0.4-1.2-1.2v-4.7H47v4.7c0 0.8-0.4 1.2-1.2 1.2h-1.4c-0.8 0-1.2-0.4-1.2-1.2V62.1c0-0.8 0.4-1.2 1.2-1.2h1.4c0.8 0 1.2 0.4 1.2 1.2v4.9h5.5v-4.9c0-0.8 0.4-1.2 1.2-1.2H55c0.8 0 1.2 0.4 1.2 1.2V74.8zM79.1 27.3h-11c-2.9 0-5.3-2.4-5.3-5.3V10.2c0-0.3 0.4-0.4 0.6-0.2l16 16.7C79.5 26.9 79.4 27.3 79.1 27.3z" fill="#d58dfc" data-fill-palette-color="accent"></path></g></svg></g></g></svg></g><defs><mask id="d616d4bd-67f7-44ba-bba7-be4308d6f045"><rect width="640" height="400" fill="white"></rect><rect width="159.0314375426621" height="254.74118208" fill="black" y="-3.7705910399999993" x="118.24428122866894" id="transform-me"></rect></mask></defs></svg><rect width="395.52" height="247.2" fill="none" stroke="none" visibility="hidden"></rect></g></svg></g></svg>