<svg xmlns="http://www.w3.org/2000/svg" version="1.1" xmlns:xlink="http://www.w3.org/1999/xlink" xmlns:svgjs="http://svgjs.dev/svgjs" width="1000" height="750" viewBox="0 0 1000 750"><rect width="1000" height="750" fill="#851428"></rect><g transform="matrix(0.834,0,0,0.834,82.49454545454546,115.4193570850203)"><svg viewBox="0 0 396 247" data-background-color="#851428" preserveAspectRatio="xMidYMid meet" height="623" width="1000" xmlns="http://www.w3.org/2000/svg" xmlns:xlink="http://www.w3.org/1999/xlink"><g id="tight-bounds" transform="matrix(1,0,0,1,0.2400000000000091,-0.09999999999999432)"><svg viewBox="0 0 395.52 247.2" height="247.2" width="395.52"><g><svg></svg></g><g><svg viewBox="0 0 395.52 247.2" height="247.2" width="395.52"><g transform="matrix(1,0,0,1,146.330730931677,47.215199999999996)"><svg viewBox="0 0 102.85853813664596 152.7696" height="152.7696" width="102.85853813664596"><g><svg viewBox="0 0 102.85853813664596 152.7696" height="152.7696" width="102.85853813664596"><g><svg viewBox="0 0 102.85853813664596 152.7696" height="152.7696" width="102.85853813664596"><g><svg viewBox="0 0 102.85853813664596 152.7696" height="152.7696" width="102.85853813664596"><g id="textblocktransform"><svg viewBox="0 0 102.85853813664596 152.7696" height="152.7696" width="102.85853813664596" id="textblock"><g><svg viewBox="0 0 102.85853813664596 152.7696" height="152.7696" width="102.85853813664596"><g transform="matrix(1,0,0,1,0,0)"><svg width="102.85853813664596" viewBox="4 -39.95000076293945 27.100000381469727 40.25" height="152.7696" data-palette-color="#bfa1a1"><path d="M25.15-2.1L25.15-37.55Q25.15-39.95 28.1-39.95L28.1-39.95Q31.1-39.95 31.1-37.55L31.1-37.55 31.1-2.1Q31.1 0.3 28.1 0.3L28.1 0.3Q25.15 0.3 25.15-2.1L25.15-2.1ZM9.95-37.55L9.95-2.1Q9.95 0.3 6.95 0.3L6.95 0.3Q4 0.3 4-2.1L4-2.1 4-37.55Q4-39.95 6.95-39.95L6.95-39.95Q9.95-39.95 9.95-37.55L9.95-37.55ZM21.65-20.65L21.65-20.65Q21.65-18.9 20.45-17.7 19.25-16.5 17.5-16.5L17.5-16.5Q15.8-16.5 14.6-17.7 13.4-18.9 13.4-20.65L13.4-20.65Q13.4-22.4 14.6-23.6 15.8-24.8 17.5-24.8L17.5-24.8Q19.25-24.8 20.45-23.6 21.65-22.4 21.65-20.65Z" opacity="1" transform="matrix(1,0,0,1,0,0)" fill="#bfa1a1" class="undefined-text-0" data-fill-palette-color="primary" id="text-0"></path></svg></g></svg></g></svg></g></svg></g></svg></g></svg></g></svg></g><path d="M328.632 41.215L328.632 0 81.432 0 81.432 247.2 328.632 247.2 328.632 205.985 314.855 205.985 314.855 233.423 95.209 233.423 95.209 13.777 314.855 13.777 314.855 41.215Z" fill="#bfa1a1" stroke="transparent" data-fill-palette-color="primary"></path></svg></g><defs></defs></svg><rect width="395.52" height="247.2" fill="none" stroke="none" visibility="hidden"></rect></g></svg></g></svg>